REM DIRINDEX 1\3,1\2\4,1\2\5,1\2\6
REM DIRNAME folder01,folder02,folder03,folder04,folder05,folder06
TITLE ""
FILE "046.mp3" MP3
  TRACK 01 AUDIO
    TITLE "4:cjc137_1888"
    INDEX 01 00:00:00
  TRACK 02 AUDIO
    TITLE "0:"
    INDEX 01 00:01:13
  TRACK 03 AUDIO
    TITLE "6:cjc137_1889"
    INDEX 01 00:01:22
  TRACK 04 AUDIO
    TITLE "0:"
    INDEX 01 00:02:47
  TRACK 05 AUDIO
    TITLE "5:cjc137_1890"
    INDEX 01 00:02:51
  TRACK 06 AUDIO
    TITLE "0:"
    INDEX 01 00:03:66
  TRACK 07 AUDIO
    TITLE "4:cjc137_1891"
    INDEX 01 00:04:72
  TRACK 08 AUDIO
    TITLE "0:"
    INDEX 01 00:06:04
  TRACK 09 AUDIO
    TITLE "6:cjc137_1892"
    INDEX 01 00:06:08
  TRACK 10 AUDIO
    TITLE "0:"
    INDEX 01 00:07:13
  TRACK 11 AUDIO
    TITLE "5:cjc137_1893"
    INDEX 01 00:07:17
  TRACK 12 AUDIO
    TITLE "0:"
    INDEX 01 00:08:24
  TRACK 13 AUDIO
    TITLE "4:cjc137_1894"
    INDEX 01 00:09:30
  TRACK 14 AUDIO
    TITLE "0:"
    INDEX 01 00:10:37
  TRACK 15 AUDIO
    TITLE "6:cjc137_1895"
    INDEX 01 00:10:43
  TRACK 16 AUDIO
    TITLE "0:"
    INDEX 01 00:11:52
  TRACK 17 AUDIO
    TITLE "5:cjc137_1896"
    INDEX 01 00:11:58
  TRACK 18 AUDIO
    TITLE "0:"
    INDEX 01 00:12:65
  TRACK 19 AUDIO
    TITLE "4:cjc137_1897"
    INDEX 01 00:13:73
  TRACK 20 AUDIO
    TITLE "0:"
    INDEX 01 00:15:03
  TRACK 21 AUDIO
    TITLE "6:cjc137_1898"
    INDEX 01 00:15:09
  TRACK 22 AUDIO
    TITLE "0:"
    INDEX 01 00:16:08
  TRACK 23 AUDIO
    TITLE "5:cjc137_1899"
    INDEX 01 00:16:14
  TRACK 24 AUDIO
    TITLE "0:"
    INDEX 01 00:17:18
  TRACK 25 AUDIO
    TITLE "4:cjc137_1900"
    INDEX 01 00:18:27
  TRACK 26 AUDIO
    TITLE "0:"
    INDEX 01 00:19:26
  TRACK 27 AUDIO
    TITLE "6:cjc137_1901"
    INDEX 01 00:19:32
  TRACK 28 AUDIO
    TITLE "0:"
    INDEX 01 00:20:41
  TRACK 29 AUDIO
    TITLE "5:cjc137_1902"
    INDEX 01 00:20:47
  TRACK 30 AUDIO
    TITLE "0:"
    INDEX 01 00:21:45
  TRACK 31 AUDIO
    TITLE "4:cjc137_1903"
    INDEX 01 00:22:52
  TRACK 32 AUDIO
    TITLE "0:"
    INDEX 01 00:24:02
  TRACK 33 AUDIO
    TITLE "6:cjc137_1904"
    INDEX 01 00:24:08
  TRACK 34 AUDIO
    TITLE "0:"
    INDEX 01 00:25:13
  TRACK 35 AUDIO
    TITLE "5:cjc137_1905"
    INDEX 01 00:25:19
  TRACK 36 AUDIO
    TITLE "0:"
    INDEX 01 00:26:44
  TRACK 37 AUDIO
    TITLE "4:cjc137_1906"
    INDEX 01 00:27:49
  TRACK 38 AUDIO
    TITLE "0:"
    INDEX 01 00:28:57
  TRACK 39 AUDIO
    TITLE "6:cjc137_1907"
    INDEX 01 00:28:64
  TRACK 40 AUDIO
    TITLE "0:"
    INDEX 01 00:29:62
  TRACK 41 AUDIO
    TITLE "5:cjc137_1908"
    INDEX 01 00:29:70
  TRACK 42 AUDIO
    TITLE "0:"
    INDEX 01 00:31:04
  TRACK 43 AUDIO
    TITLE "4:cjc137_1909"
    INDEX 01 00:32:11
  TRACK 44 AUDIO
    TITLE "0:"
    INDEX 01 00:33:21
  TRACK 45 AUDIO
    TITLE "6:cjc137_1910"
    INDEX 01 00:33:28
  TRACK 46 AUDIO
    TITLE "0:"
    INDEX 01 00:34:55
  TRACK 47 AUDIO
    TITLE "5:cjc137_1911"
    INDEX 01 00:34:61
  TRACK 48 AUDIO
    TITLE "0:"
    INDEX 01 00:35:72
  TRACK 49 AUDIO
    TITLE "4:cjc137_1912"
    INDEX 01 00:37:05
  TRACK 50 AUDIO
    TITLE "0:"
    INDEX 01 00:38:10
  TRACK 51 AUDIO
    TITLE "6:cjc137_1913"
    INDEX 01 00:38:22
  TRACK 52 AUDIO
    TITLE "0:"
    INDEX 01 00:39:45
  TRACK 53 AUDIO
    TITLE "5:cjc137_1914"
    INDEX 01 00:39:52
  TRACK 54 AUDIO
    TITLE "0:"
    INDEX 01 00:40:58
  TRACK 55 AUDIO
    TITLE "4:cjc137_1915"
    INDEX 01 00:41:65
  TRACK 56 AUDIO
    TITLE "0:"
    INDEX 01 00:43:05
  TRACK 57 AUDIO
    TITLE "6:cjc137_1916"
    INDEX 01 00:43:11
  TRACK 58 AUDIO
    TITLE "0:"
    INDEX 01 00:44:18
  TRACK 59 AUDIO
    TITLE "5:cjc137_1917"
    INDEX 01 00:44:22
  TRACK 60 AUDIO
    TITLE "0:"
    INDEX 01 00:45:35
  TRACK 61 AUDIO
    TITLE "4:cjc137_1918"
    INDEX 01 00:46:41
  TRACK 62 AUDIO
    TITLE "0:"
    INDEX 01 00:47:52
  TRACK 63 AUDIO
    TITLE "6:cjc137_1919"
    INDEX 01 00:47:60
  TRACK 64 AUDIO
    TITLE "0:"
    INDEX 01 00:48:69
  TRACK 65 AUDIO
    TITLE "5:cjc137_1920"
    INDEX 01 00:49:00
  TRACK 66 AUDIO
    TITLE "0:"
    INDEX 01 00:50:13
  TRACK 67 AUDIO
    TITLE "4:cjc137_1921"
    INDEX 01 00:51:20
  TRACK 68 AUDIO
    TITLE "0:"
    INDEX 01 00:52:39
  TRACK 69 AUDIO
    TITLE "6:cjc137_1922"
    INDEX 01 00:52:43
  TRACK 70 AUDIO
    TITLE "0:"
    INDEX 01 00:53:53
  TRACK 71 AUDIO
    TITLE "5:cjc137_1923"
    INDEX 01 00:53:58
  TRACK 72 AUDIO
    TITLE "0:"
    INDEX 01 00:55:03
  TRACK 73 AUDIO
    TITLE "4:cjc137_1924"
    INDEX 01 00:56:08
  TRACK 74 AUDIO
    TITLE "0:"
    INDEX 01 00:57:07
  TRACK 75 AUDIO
    TITLE "6:cjc137_1925"
    INDEX 01 00:57:15
  TRACK 76 AUDIO
    TITLE "0:"
    INDEX 01 00:58:34
  TRACK 77 AUDIO
    TITLE "5:cjc137_1926"
    INDEX 01 00:58:38
  TRACK 78 AUDIO
    TITLE "0:"
    INDEX 01 00:59:36
  TRACK 79 AUDIO
    TITLE "4:cjc137_1927"
    INDEX 01 01:00:45
  TRACK 80 AUDIO
    TITLE "0:"
    INDEX 01 01:01:54
  TRACK 81 AUDIO
    TITLE "6:cjc137_1928"
    INDEX 01 01:01:60
  TRACK 82 AUDIO
    TITLE "0:"
    INDEX 01 01:03:02
  TRACK 83 AUDIO
    TITLE "5:cjc137_1929"
    INDEX 01 01:03:06
  TRACK 84 AUDIO
    TITLE "0:"
    INDEX 01 01:04:13
